<?xml version="1.0" encoding="UTF-8"?>
<!DOCTYPE svg PUBLIC "-//W3C//DTD SVG 1.1//EN" "http://www.w3.org/Graphics/SVG/1.1/DTD/svg11.dtd">
<svg xmlns="http://www.w3.org/2000/svg" version="1.1" width="100%" height="100%" viewBox="0 0 1024 1024" style="shape-rendering:geometricPrecision; text-rendering:geometricPrecision; image-rendering:optimizeQuality; fill-rule:evenodd; clip-rule:evenodd" xmlns:xlink="http://www.w3.org/1999/xlink">
<g><path style="opacity:1" fill="#fefefe" d="M 496.5,114.5 C 504.84,114.334 513.173,114.5 521.5,115C 526.728,116.41 531.728,118.41 536.5,121C 563.167,141.333 589.833,161.667 616.5,182C 671.463,183.312 726.463,183.979 781.5,184C 788.667,185.833 793.167,190.333 795,197.5C 795.667,206.833 795.667,216.167 795,225.5C 792.628,232.576 788.961,238.91 784,244.5C 699.088,341.353 614.421,438.353 530,535.5C 527.211,540.661 528.377,544.494 533.5,547C 600.5,547.667 667.5,547.667 734.5,547C 739.631,546.184 743.131,543.351 745,538.5C 746.193,528.883 746.859,519.216 747,509.5C 747.785,507.714 748.951,506.214 750.5,505C 766.408,503.364 782.408,503.031 798.5,504C 803.573,505.406 807.073,508.572 809,513.5C 809.667,544.5 809.667,575.5 809,606.5C 805.42,615.892 798.587,621.392 788.5,623C 664.833,623.667 541.167,623.667 417.5,623C 407.502,620.877 401.669,614.71 400,604.5C 398.447,587.494 402.78,572.16 413,558.5C 439.244,524.919 466.244,491.919 494,459.5C 556.373,388.796 618.373,317.796 680,246.5C 680.756,244.191 680.256,242.191 678.5,240.5C 675.702,239.031 672.702,238.198 669.5,238C 644.5,237.667 619.5,237.333 594.5,237C 585.997,231.916 577.664,226.583 569.5,221C 555.787,209.619 541.787,198.619 527.5,188C 512.681,181.832 498.681,183.499 485.5,193C 413.913,252.258 341.746,310.758 269,368.5C 268.138,370.087 267.471,371.754 267,373.5C 266.449,452.505 266.449,531.505 267,610.5C 265.543,617.165 261.376,620.998 254.5,622C 247.167,622.667 239.833,622.667 232.5,622C 229.438,620.939 226.938,619.106 225,616.5C 223.677,550.891 223.01,485.224 223,419.5C 222.167,418.667 221.333,417.833 220.5,417C 208.167,416.667 195.833,416.333 183.5,416C 174.667,413.833 169.167,408.333 167,399.5C 166.095,391.089 166.428,382.755 168,374.5C 170.234,370.542 173.067,367.042 176.5,364C 275.833,284.667 375.167,205.333 474.5,126C 481.212,120.812 488.545,116.979 496.5,114.5 Z"/></g>
<g><path style="opacity:1" fill="#fefefe" d="M 349.5,439.5 C 354.844,439.334 360.177,439.501 365.5,440C 367.049,441.214 368.215,442.714 369,444.5C 369.667,456.167 369.667,467.833 369,479.5C 368.167,481.667 366.667,483.167 364.5,484C 352.5,484.667 340.5,484.667 328.5,484C 327.584,483.626 326.75,483.126 326,482.5C 325.333,469.167 325.333,455.833 326,442.5C 326.75,441.874 327.584,441.374 328.5,441C 335.679,440.829 342.679,440.329 349.5,439.5 Z"/></g>
<g><path style="opacity:1" fill="#fcfcfc" d="M 390.5,439.5 C 401.505,439.333 412.505,439.5 423.5,440C 424.333,440.833 425.167,441.667 426,442.5C 427.626,454.737 427.959,467.071 427,479.5C 426.215,481.286 425.049,482.786 423.5,484C 411.167,484.667 398.833,484.667 386.5,484C 385.667,483.167 384.833,482.333 384,481.5C 383.333,468.833 383.333,456.167 384,443.5C 384.374,442.584 384.874,441.75 385.5,441C 387.382,440.802 389.048,440.302 390.5,439.5 Z"/></g>
<g><path style="opacity:1" fill="#fbfbfb" d="M 331.5,498.5 C 342.838,498.333 354.172,498.5 365.5,499C 366.624,499.249 367.624,499.749 368.5,500.5C 370.315,510.457 370.982,520.457 370.5,530.5C 369.953,533.826 369.453,537.16 369,540.5C 368.167,541.333 367.333,542.167 366.5,543C 353.833,543.667 341.167,543.667 328.5,543C 327.667,542.167 326.833,541.333 326,540.5C 325.333,527.833 325.333,515.167 326,502.5C 327.5,500.531 329.333,499.198 331.5,498.5 Z"/></g>
<g><path style="opacity:1" fill="#fcfcfc" d="M 387.5,498.5 C 399.171,498.333 410.838,498.5 422.5,499C 424.64,499.973 426.307,501.473 427.5,503.5C 420.954,514.884 413.788,525.884 406,536.5C 401.129,543.14 394.629,545.306 386.5,543C 386,542.5 385.5,542 385,541.5C 383.439,529.215 383.106,516.882 384,504.5C 384.564,502.113 385.73,500.113 387.5,498.5 Z"/></g>
<g><path style="opacity:1" fill="#fdfdfd" d="M 185.5,686.5 C 227.835,686.333 270.168,686.5 312.5,687C 313.308,687.308 313.975,687.808 314.5,688.5C 315.635,696.451 315.802,704.451 315,712.5C 285.376,755.58 255.876,798.747 226.5,842C 255.833,842.333 285.167,842.667 314.5,843C 315.333,843.833 316.167,844.667 317,845.5C 317.667,854.167 317.667,862.833 317,871.5C 316.692,872.308 316.192,872.975 315.5,873.5C 271.875,874.661 228.208,874.828 184.5,874C 183.584,873.626 182.75,873.126 182,872.5C 181.055,863.065 181.389,853.732 183,844.5C 211.957,802.754 240.79,760.92 269.5,719C 241.167,718.667 212.833,718.333 184.5,718C 184,717.5 183.5,717 183,716.5C 182.333,707.5 182.333,698.5 183,689.5C 183.698,688.309 184.531,687.309 185.5,686.5 Z"/></g>
<g><path style="opacity:1" fill="#fdfdfd" d="M 543.5,735.5 C 554.707,734.285 565.374,736.118 575.5,741C 582.516,745.677 587.683,751.844 591,759.5C 605.473,740.228 624.639,732.728 648.5,737C 668.161,742.786 678.995,755.952 681,776.5C 681.667,808.167 681.667,839.833 681,871.5C 669.91,872.653 658.743,872.82 647.5,872C 647,871.5 646.5,871 646,870.5C 645.95,841.465 645.284,812.465 644,783.5C 637.317,765.824 625.483,761.324 608.5,770C 602.516,775.133 599.016,781.633 598,789.5C 597.667,816.5 597.333,843.5 597,870.5C 596.5,871 596,871.5 595.5,872C 584.833,872.667 574.167,872.667 563.5,872C 563,871.5 562.5,871 562,870.5C 561.911,842.144 561.244,813.81 560,785.5C 557.661,770.16 548.828,763.66 533.5,766C 520.875,770.652 514.375,779.819 514,793.5C 513.667,819.167 513.333,844.833 513,870.5C 512.5,871 512,871.5 511.5,872C 500.453,872.811 489.453,872.644 478.5,871.5C 477.333,828.171 477.167,784.837 478,741.5C 478.75,740.874 479.584,740.374 480.5,740C 490.167,739.333 499.833,739.333 509.5,740C 511.09,744.566 512.09,749.4 512.5,754.5C 520.556,744.312 530.889,737.979 543.5,735.5 Z"/></g>
<g><path style="opacity:1" fill="#fdfdfd" d="M 759.5,736.5 C 809.876,733.544 836.876,757.211 840.5,807.5C 837.363,851.47 813.863,874.804 770,877.5C 732.859,876.025 710.859,857.025 704,820.5C 701.078,798.331 705.745,777.998 718,759.5C 729.227,746.973 743.061,739.306 759.5,736.5 Z"/></g>
<g><path style="opacity:1" fill="#fdfdfd" d="M 326.5,739.5 C 338.171,739.333 349.838,739.5 361.5,740C 362.416,740.374 363.25,740.874 364,741.5C 375.172,769.842 386.339,798.175 397.5,826.5C 407.663,798.527 417.829,770.527 428,742.5C 428.833,741.667 429.667,740.833 430.5,740C 441.077,739.181 451.577,739.348 462,740.5C 462.652,743.594 462.318,746.594 461,749.5C 441.278,797.282 422.945,845.616 406,894.5C 402.333,903.167 398.667,911.833 395,920.5C 394.097,921.701 392.931,922.535 391.5,923C 380.923,923.819 370.423,923.652 360,922.5C 359.454,919.101 359.787,915.768 361,912.5C 365.892,898.386 371.058,884.386 376.5,870.5C 371.282,855.064 365.782,839.731 360,824.5C 348.391,798.283 337.058,771.95 326,745.5C 325.322,743.402 325.489,741.402 326.5,739.5 Z"/></g>
<g><path style="opacity:1" fill="#010101" d="M 763.5,763.5 C 778.036,761.357 789.203,766.357 797,778.5C 804.502,797.636 804.169,816.636 796,835.5C 790.186,844.16 782.019,848.827 771.5,849.5C 753.993,847.161 743.827,837.161 741,819.5C 738.669,805.808 740.003,792.475 745,779.5C 749.217,771.774 755.384,766.441 763.5,763.5 Z"/></g>
</svg>
